<svg id="Layer_4" data-name="Layer 4" xmlns="http://www.w3.org/2000/svg" viewBox="0 0 1080 1080"><defs><style>.cls-1{fill:none;stroke:#000;stroke-linecap:round;stroke-linejoin:round;stroke-width:11px;}</style></defs><path class="cls-1" d="M245.89,321.08c-98.08-217.4,273-403.42,443-168.37C812.16,323.18,878.49,375,770.6,496s-206,225.58-134,340S577.72,1097.53,447,1022.34s-212.5-176.54-186.35-291,42.5-147.11,32.69-209.23"/><path class="cls-1" d="M319.45,298.2C262.23,214.83,488.92,70.64,576.08,152.71,654.52,226.57,744.45,270.41,715,378.29c-17.94,65.78-91.34,149.55-91.34,149.55s-43,51.94-55.78,82.57c-32.69,78.46-13.08,166.73-3.27,238.66S460,1019.07,397.91,960.22s-85-134-42.5-222.31,71.92-160.19,13.08-232.12"/><path class="cls-1" d="M623.69,527.84S584.15,362,502.47,375s-150.33,124.24-192.83,49"/></svg>