<svg id="Layer_3" data-name="Layer 3" xmlns="http://www.w3.org/2000/svg" viewBox="0 0 1080 1080"><defs><style>.cls-1{fill:none;stroke:#000;stroke-linecap:round;stroke-linejoin:round;stroke-width:11px;}</style></defs><path className="cls-1" d="M642.49,600.6c-18,52.31,49,173.27,67,220.68s-67,137.31-140.58,168.36S304.12,948.78,325.37,850.7s80.1-160.19,98.08-266.44S372.77,453.49,297.58,294.93,516.62,138,516.62,138s196.16-14.71,153.66,143.85"/><path className="cls-1" d="M588.55,281.85S446.33,192,423.45,257.33s75.14,112.79,75.17,191.25-3.25,204.33-52.29,279.52-94.81,132.41-55.57,163.47,127.5,44.13,161.82,27.79,57.22-52.31,63.75-85S593.45,723.2,586.91,688.87s-19.61-152,19.62-176.54c0,0,26-175.35-73-183.08"/></svg>