<svg id="Layer_2" data-name="Layer 2" xmlns="http://www.w3.org/2000/svg" viewBox="0 0 1080 1080"><path d="M353.31,194c-5.08,68.62-7.45,137.41-8.47,206.2S344,537.74,344.4,606.5c.19,34,1.59,67.91,7.54,101.5a428,428,0,0,0,28,92.8A374.67,374.67,0,0,0,400,841.62c7.25,12.59,15.85,25,26.74,34.75s24,17.4,38.47,20a87.29,87.29,0,0,0,41.09-2.21,98.76,98.76,0,0,0,36.18-20.3c10.95-9.56,18.68-21.77,24.09-35.15,11.42-28.29,7.86-60.56-4.11-88a110.23,110.23,0,0,0-9.6-17.51c-3.3-4.92-8.15-8.18-14.24-8.18-6.37,0-10.61,3.38-14.25,8.18-21.74,28.57-37,63.93-31.33,100.39,4.76,30.63,28.16,61.53,59.83,67.39,19.62,3.62,40.52-.36,59.09-7.15,17.3-6.32,32.59-16.49,42.06-32.67,15.69-26.78,13-61.84,2.15-89.85-1.55-4-3-8.22-5.41-11.81-4.52-6.73-11.54-11.4-19.88-11.36-9.92.05-19.23,6.69-26.64,12.68-11.42,9.24-19.4,22.6-23.86,36.46-9,28-1.64,61.08,22,79.64,24.27,19.1,58.14,23.16,85.89,9.09,31.36-15.89,42.79-52.52,46.34-85,8.09-74.1-21.7-146-52.91-211.41-3.83-8-7.73-16-11.64-24-3.8-7.77-15.47-10.5-22.58-5.92-8,5.14-10,14.26-5.92,22.58,7.29,14.89,14.52,29.8,21.39,44.89q2.39,5.25,4.71,10.53c.86,2,1.72,3.91,2.56,5.88.34.78.68,1.57,1,2.35,1.51,3.51-1-2.45.33.78,3.19,7.67,6.28,15.38,9.17,23.17a421.25,421.25,0,0,1,14.45,46.47c1.92,7.89,3.56,15.85,4.87,23.87.3,1.84.57,3.69.85,5.54.6,4.07-.31-2.69,0-.07.11,1,.25,2,.37,3.08q.7,6.18,1.12,12.37a236,236,0,0,1,.39,23.64q-.19,6-.73,11.88-.24,2.82-.57,5.64a17.19,17.19,0,0,1-.28,2.31c.36-2.62.41-3,.16-1.21-.08.53-.16,1.06-.25,1.59a132.16,132.16,0,0,1-4.76,20.4q-.74,2.29-1.58,4.54c-.1.26-1,2.45-1,2.49s1.71-3.83.41-1a89.08,89.08,0,0,1-4.88,9.34c-.9,1.5-1.87,3-2.88,4.38-.4.56-.86,1.11-1.24,1.68,2.22-3.3,1.29-1.63.62-.88a83.26,83.26,0,0,1-7.74,7.75c-1.2,1-2.49,1.07.93-.69a16.45,16.45,0,0,0-1.42,1c-1.2.82-2.43,1.59-3.68,2.31-1,.57-2,1.11-3.07,1.61s-3.88,1.28.79-.24c-.82.26-1.61.64-2.42.93a61,61,0,0,1-7.5,2.13c-1.41.3-2.87.45-4.28.76.14,0,4.46-.45,1.8-.28-.87.06-1.74.16-2.61.21a66.49,66.49,0,0,1-7.86,0c-1.53-.1-6.4-1.06-.84.06-1.43-.29-2.88-.46-4.31-.76a66.54,66.54,0,0,1-8.42-2.35c-.54-.19-1.08-.41-1.63-.6-2.47-.86,1.36.59,1.52.67-1.53-.82-3.17-1.44-4.7-2.26-2.31-1.24-4.45-2.67-6.62-4.12s1.14.88,1.27,1c-.5-.5-1.13-.91-1.67-1.37-1.21-1-2.37-2.12-3.48-3.25s-2-2.13-2.9-3.22-.94-2.07,1,1.29c-.28-.49-.7-1-1-1.42a63.11,63.11,0,0,1-4.35-7.57c-1.49-2.93,1.4,3.84.3.75-.19-.55-.41-1.08-.6-1.63-.43-1.22-.81-2.46-1.16-3.72s-.64-2.51-.89-3.78c-.14-.71-.22-1.44-.39-2.13-.26-1.12.48,4.52.1.52a61.87,61.87,0,0,1-.25-7.82c0-1.31.13-2.62.25-3.92.07-.72.2-1.45.24-2.17l-.35,2.66c.09-.58.19-1.16.29-1.73a67.17,67.17,0,0,1,1.87-7.65c.43-1.39.9-2.78,1.42-4.14.21-.54.47-1.08.64-1.63-1.53,4.68-.8,1.93-.24.75a63.11,63.11,0,0,1,4-7.23c.69-1.07,1.61-2.1,2.22-3.22-1.94,3.56-1.69,2.08-.71.95.56-.65,1.11-1.33,1.69-2a69.28,69.28,0,0,1,5.92-5.7c.91-.8,2.19-1.13-1.3,1,.61-.37,1.17-.86,1.76-1.27,1.31-.9,2.67-1.75,4.06-2.53.51-.28,1-.56,1.54-.82s2.74-.76.74-.42c-3.16.54-4.56,1.19-8.23-1.06-.24-.15-3.06-2.75-1.23-.83-2.73-2.87-1.4-1.8-.72-.52s1.13,3.29-.26-.85c.51,1.53,1.21,3,1.77,4.52a124.56,124.56,0,0,1,5.29,18.55c.3,1.46.57,2.93.81,4.4.07.48.5,3.79.14.76s0,.28.07.75c.36,3.26.56,6.54.6,9.81,0,2.91-.06,5.82-.3,8.71-.07.8-.17,1.59-.24,2.38-.22,2.31.74-4.42.14-1.08-.28,1.55-.54,3.1-.88,4.64a66.36,66.36,0,0,1-2.49,8.48c-.47,1.26-1.64,2.85.46-.94-.29.52-.5,1.14-.76,1.67-.71,1.53-1.5,3-2.35,4.48-.7,1.19-1.44,2.35-2.23,3.49-.26.39-2.11,2.91-.36.56s-.15.13-.47.5c-.82.94-1.68,1.86-2.56,2.75-.68.67-1.37,1.32-2.08,2s-2.87,3.16-.11.24c-2.21,2.33-6,4-8.85,5.5l-2.08,1c-1,.48-3.79,2.48-.33.21-1.52,1-3.76,1.45-5.49,2a153.28,153.28,0,0,1-23.39,5.94c-1,.16-4,.76-.19.1-.86.15-1.77.21-2.63.29-2.18.21-4.37.34-6.56.35-1.76,0-3.5-.14-5.25-.17-4.31-.07,3.42.78-.83-.06-.94-.19-1.89-.36-2.83-.58q-1.86-.44-3.69-1c-1.52-.49-5.76-2.8-1.37-.37-2.77-1.53-5.59-2.81-8.23-4.6l-1.55-1.09c-2.84-2,2.93,2.55.35.24-.94-.84-1.92-1.65-2.85-2.53-2.32-2.19-4.15-4.94-6.46-7.09,3.09,2.87,1.11,1.43.27.23-.37-.53-.73-1.07-1.09-1.61-.9-1.35-1.74-2.74-2.55-4.15-.64-1.14-1.25-2.29-1.84-3.45-.36-.73-.71-1.47-1.06-2.21-1.7-3.72,1,2.94-.06-.13-1-2.77-2-5.53-2.73-8.39-.37-1.43-.7-2.86-1-4.3-.16-.8-.29-1.61-.44-2.41-.68-3.51.39,4.07.06.52a87,87,0,0,1-.41-9.55q0-2.91.29-5.84c.06-.77.16-1.54.22-2.32.3-3.71-.59,3.15,0-.24a121.43,121.43,0,0,1,6.21-22.52,12.31,12.31,0,0,0,.87-2.19c-.33,2.59-.89,2-.27.68.83-1.79,1.64-3.59,2.51-5.36q2.64-5.34,5.68-10.45a198,198,0,0,1,12.67-18.66H524.36c1.8,2.69,3.51,5.44,5.07,8.28.7,1.26,1.37,2.54,2,3.83.24.48,2.58,4.48,2.3,4.91.37-.57-1.38-3.42-.2-.44.27.67.53,1.34.78,2q.85,2.28,1.61,4.61c1.06,3.26,2,6.58,2.7,9.92.35,1.59.67,3.18,1,4.78.24,1.38.39,5.74.2,1,.13,3.4.65,6.77.71,10.19q.09,4.55-.25,9.08-.07,1.07-.18,2.13c0,.42-.53,3.93-.08,1,.4-2.59,0-.21-.09.44-.17,1.05-.36,2.1-.57,3.14a87,87,0,0,1-2.24,8.75c-.48,1.53-1,3-1.56,4.53-1.2,3.17,0-.55.26-.49-.07,0-1,2.29-1.1,2.44a77.41,77.41,0,0,1-4.15,7.65c-.75,1.19-1.53,2.36-2.34,3.5s-2.32,2.39.62-.71c-.64.67-1.17,1.47-1.77,2.17-1.62,1.91-3.34,3.73-5.14,5.47-1.12,1.09-2.29,2.14-3.48,3.15-.47.41-1,.8-1.44,1.2-2.34,1.95,3-2.16.36-.28a94.75,94.75,0,0,1-14.58,8.49c-1,.46-2.76.88,1.36-.55-.59.2-1.16.46-1.74.68-1.31.5-2.64,1-4,1.38a76,76,0,0,1-8.55,2.19c-1.21.23-2.44.36-3.65.61,5.43-1.14.72-.16-.65-.06a66.62,66.62,0,0,1-8.71,0c-1.21-.07-2.44-.31-3.65-.33,5.33.07.94.09-.58-.21a59.35,59.35,0,0,1-8.39-2.36,12.86,12.86,0,0,0-1.73-.66c3.66.74,2.44,1.06,1,.37s-2.79-1.37-4.14-2.13-2.48-1.45-3.68-2.23c-.6-.39-1.19-.79-1.78-1.2s-1.17-.82-1.74-1.25l1.64,1.28c-4.7-4.53-9.56-8.55-13.73-13.65a9,9,0,0,1-1.37-1.69l1.24,1.61c-.33-.43-.66-.87-1-1.31q-1.47-2-2.86-4c-1.87-2.72-3.64-5.5-5.35-8.33a341.69,341.69,0,0,1-19.82-38.89c-.76-1.7-1.54-3.41-2.23-5.14.19.47,1.35,3.29.21.49-.31-.77-.63-1.54-.95-2.31q-2.24-5.48-4.3-11-3.94-10.5-7.29-21.22a412.74,412.74,0,0,1-11.2-44.07c-1.44-7.35-2.64-14.73-3.71-22.13-.22-1.49.46-2,.09.68a12,12,0,0,0-.32-2.47q-.35-2.79-.65-5.58-.68-6.15-1.17-12.33c-1.31-16.21-1.73-32.49-1.9-48.75q-1-99.29.15-198.6c.77-66.28,2.68-132.55,7-198.7q.81-12.34,1.72-24.71c.64-8.62-8-16.87-16.5-16.5-9.48.43-15.81,7.26-16.5,16.5Z"/></svg>